<?xml version="1.0" encoding="UTF-8"?> <svg xmlns="http://www.w3.org/2000/svg" width="2723.1px" height="450px" viewBox="0 0 272.31 45"><title>logo_totachi</title><path d="M119.06,12.45c-3.4-2.62-8.5-2.62-11.86-2.62-3.56,0-8.43,0-11.87,2.62-3.73,2.83-3.73,7.53-3.73,10.07s0,7.19,3.72,10.05c3.41,2.62,8.5,2.62,11.88,2.62s8.51,0,11.88-2.62,3.68-6.71,3.68-10.05-.42-7.56-3.69-10.07Zm-18.11,4.78h0c1.19-1.18,3.26-1.42,6.2-1.42,2.34,0,4.94.12,6.25,1.42.57.57,1.32,1.71,1.32,5.29,0,2.59-.44,4.37-1.32,5.25-1.33,1.35-3.71,1.46-6.25,1.46s-4.9-.11-6.18-1.44h0c-.88-.9-1.32-2.62-1.32-5.25,0-3.55.76-4.72,1.32-5.29Z" transform="translate(0 0)" style="fill:#cc0839"></path><path d="M252.48,10.09h-6.57a.65.65,0,0,0-.64.65V34.29a.65.65,0,0,0,.64.65h6.59a.65.65,0,0,0,.65-.65V10.74a.65.65,0,0,0-.65-.65Z" transform="translate(0 0)" style="fill:#cc0839"></path><path d="M182.54,34.37,171.37,13c-1.24-2.31-2.84-3.22-5.74-3.22s-4.49.88-5.73,3.22L148.71,34.37a.36.36,0,0,0,.35.57h7.22a1.16,1.16,0,0,0,.94-.58l2.23-4.46a1.19,1.19,0,0,1,.95-.58h10.44a1.17,1.17,0,0,1,.95.58L174,34.37a1.17,1.17,0,0,0,.95.58h7.21c.36,0,.52-.26.35-.57ZM165.18,18.24h0l.15-.32c.17-.32.43-.32.59,0l1.19,2.4,1.4,2.79c.16.33,0,.59-.35.59h-5.09a.37.37,0,0,1-.36-.58l2.46-4.88Z" transform="translate(0 0)" style="fill:#cc0839"></path><path d="M208.07,29H198c-3.48,0-5.28-.47-6.23-1.64-.68-.84-1-2.37-1-4.55,0-2.43.42-4.15,1.24-5.11,1.12-1.34,3-1.59,6.29-1.59h9.35a.66.66,0,0,0,.66-.65V10.74a.65.65,0,0,0-.66-.65H195.82c-4.4,0-7.76,1.05-10,3.15-2.75,2.57-3.12,6.3-3.12,9.59,0,3.09.39,6.6,3.25,9.18s7,2.94,9.73,2.94h12.37a.66.66,0,0,0,.65-.65V29.62a.66.66,0,0,0-.65-.66Z" transform="translate(0 0)" style="fill:#cc0839"></path><path d="M239.52,10.09H233a.65.65,0,0,0-.65.65v8.11a.34.34,0,0,1-.34.33H220.83a.34.34,0,0,1-.34-.33V10.74a.65.65,0,0,0-.65-.65h-6.58a.65.65,0,0,0-.65.65V34.29a.65.65,0,0,0,.65.65h6.58a.65.65,0,0,0,.65-.65V25.5a.33.33,0,0,1,.34-.34H232a.34.34,0,0,1,.34.34v8.79a.65.65,0,0,0,.65.65h6.57a.65.65,0,0,0,.65-.65V10.74a.65.65,0,0,0-.65-.65Z" transform="translate(0 0)" style="fill:#cc0839"></path><path d="M151.42,10.09H125.18a.66.66,0,0,0-.66.65v4.67a.66.66,0,0,0,.66.65H134a.34.34,0,0,1,.33.34V34.29a.66.66,0,0,0,.65.65h6.57a.65.65,0,0,0,.66-.65V16.4a.34.34,0,0,1,.34-.34h8.87a.66.66,0,0,0,.65-.65V10.74a.66.66,0,0,0-.65-.65Z" transform="translate(0 0)" style="fill:#cc0839"></path><path d="M89,10.09H62.73a.65.65,0,0,0-.64.65v4.67a.65.65,0,0,0,.64.65h8.83a.33.33,0,0,1,.34.34V34.29a.66.66,0,0,0,.65.65h6.59a.65.65,0,0,0,.64-.65V16.4a.34.34,0,0,1,.33-.34H89a.66.66,0,0,0,.65-.65V10.74a.65.65,0,0,0-.65-.65Z" transform="translate(0 0)" style="fill:#cc0839"></path><path d="M264.79,2.87a7.74,7.74,0,0,1,3.7,1,6.91,6.91,0,0,1,2.81,2.79,7.57,7.57,0,0,1,0,7.53,7,7,0,0,1-2.78,2.79,7.57,7.57,0,0,1-7.49,0,7,7,0,0,1-2.79-2.79,7.57,7.57,0,0,1-1-3.74,7.66,7.66,0,0,1,1-3.78,6.94,6.94,0,0,1,2.83-2.79A7.68,7.68,0,0,1,264.79,2.87Zm0,1.24a6.38,6.38,0,0,0-3.09.81,5.81,5.81,0,0,0-2.36,2.33,6.24,6.24,0,0,0,0,6.27,5.89,5.89,0,0,0,2.33,2.33,6.27,6.27,0,0,0,6.26,0,5.89,5.89,0,0,0,2.32-2.33,6.31,6.31,0,0,0,0-6.27,5.73,5.73,0,0,0-2.35-2.33A6.39,6.39,0,0,0,264.79,4.11Zm-3.31,10.46V6.46h2.79a6.72,6.72,0,0,1,2.07.23,2,2,0,0,1,1,.78,2.1,2.1,0,0,1,.38,1.19,2.16,2.16,0,0,1-.63,1.55,2.51,2.51,0,0,1-1.68.74,2.35,2.35,0,0,1,.68.43A10,10,0,0,1,267.3,13l1,1.59h-1.59L266,13.29a6.66,6.66,0,0,0-1.37-1.89,1.68,1.68,0,0,0-1-.27h-.77v3.44ZM262.79,10h1.59a2.54,2.54,0,0,0,1.55-.34,1.17,1.17,0,0,0,.21-1.55,1.18,1.18,0,0,0-.55-.42,4,4,0,0,0-1.31-.14h-1.49Z" transform="translate(0 0)" style="fill:#cc0839"></path><path d="M22.5,0A22.5,22.5,0,1,0,45,22.5,22.5,22.5,0,0,0,22.5,0ZM39.27,15.6h0a15.55,15.55,0,0,1-12-12.33,17.36,17.36,0,0,1,12,12.33ZM17.75,3.26h0a15.54,15.54,0,0,1-12,12.33,17.34,17.34,0,0,1,12-12.33ZM22.5,37.21h-.11a12,12,0,0,1-1.59-6V21.55a3.47,3.47,0,0,0-3.46-3.46H14.22a.35.35,0,0,0-.35.34V31.22a18.7,18.7,0,0,0,.43,3.93A17.3,17.3,0,0,1,5.42,17.08h2A18.16,18.16,0,0,0,25.1,3a.24.24,0,0,1,.23-.18.23.23,0,0,1,.22.18h0A17.17,17.17,0,0,0,39.61,17.32c0,.25.07.51.1.77H32.47A3.47,3.47,0,0,0,29,21.55v3.12a.34.34,0,0,0,.34.34H39A17.32,17.32,0,0,1,22.5,37.21Z" transform="translate(0 0)" style="fill:#cc0839"></path></svg> 